<svg xmlns="http://www.w3.org/2000/svg" width="770" height="509" viewBox="0 0 770 509">

  <defs>
    <style>
      text { font-family: system-ui, -apple-system, "Segoe UI", sans-serif; font-size: 12px; fill: #111827; }
      .shape-rect { fill: #ffffff; stroke: #9ca3af; stroke-width: 1; }
      .shape-entity { fill: #ffffff; stroke: #111827; stroke-width: 2; }
      .shape-circle { fill: #ffffff; stroke: #9ca3af; stroke-width: 1; }
      .shape-pill { fill: #ffffff; stroke: #9ca3af; stroke-width: 1; }
      .shape-db { fill: #ffffff; stroke: #9ca3af; stroke-width: 1; }
      .conn { stroke: #111827; stroke-width: 2; fill: none; }
    </style>
    <marker id="arrow-end" markerWidth="10" markerHeight="7" refX="10" refY="3.5"
            orient="auto" markerUnits="strokeWidth">
      <polygon points="0 0, 10 3.5, 0 7" fill="#111827"/>
    </marker>
    <marker id="arrow-start" markerWidth="10" markerHeight="7" refX="0" refY="3.5"
            orient="auto" markerUnits="strokeWidth">
      <polygon points="10 0, 0 3.5, 10 7" fill="#111827"/>
    </marker>
  </defs>
        
<rect class="shape-rect" x="40" y="197" width="120" height="40" rx="4" ry="4" />
<text x="100" y="221" text-anchor="middle">Index</text>
<rect class="shape-rect" x="327" y="40" width="120" height="40" rx="4" ry="4" />
<text x="387" y="64" text-anchor="middle">Catalogo</text>
<rect class="shape-rect" x="610" y="159" width="120" height="40" rx="4" ry="4" />
<text x="670" y="183" text-anchor="middle">P producto</text>
<rect class="shape-rect" x="541" y="429" width="120" height="40" rx="4" ry="4" />
<text x="601" y="453" text-anchor="middle">Carrito</text>
<rect class="shape-rect" x="204" y="427" width="120" height="40" rx="4" ry="4" />
<text x="264" y="451" text-anchor="middle">Finalizacion</text>
<text x="380" y="257">Front</text>
<path class="conn" d="M 136.56050955414014 197 L 350.43949044585986 80" marker-end="url(#arrow-end)" />
<path class="conn" d="M 434.56302521008405 80 L 622.436974789916 159" marker-end="url(#arrow-end)" />
<path class="conn" d="M 664.8888888888889 199 L 606.1111111111111 429" marker-end="url(#arrow-end)" />
<path class="conn" d="M 541 448.6439169139466 L 324 447.3560830860534" marker-end="url(#arrow-end)" />
<path class="conn" d="M 249.73913043478262 427 H 114.26086956521739 V 237" marker-end="url(#arrow-end)" />
<path class="conn" d="M 249.73913043478262 427 L 114.26086956521739 237" marker-end="url(#arrow-end)" />
</svg>